<?xml version="1.0" encoding="utf-8"?>
<!-- Generator: Adobe Illustrator 19.2.1, SVG Export Plug-In . SVG Version: 6.00 Build 0)  -->
<svg version="1.1" id="Layer_1" xmlns="http://www.w3.org/2000/svg" xmlns:xlink="http://www.w3.org/1999/xlink" x="0px" y="0px"
	 viewBox="0 0 465 346" style="enable-background:new 0 0 465 346;" xml:space="preserve">
<style type="text/css">
	.st0{fill:#FFFFFF;}
</style>
<path class="st0" d="M139.6,53.4c2.6,0,5.1,0.1,7.6,0.4c4.7-3.8,10.7-6,17.2-6c0.3,0,0.6,0,0.8,0c3.3,0.1,6.5,0.8,9.5,2
	c5.3,2.2,9.8,5.9,12.9,10.7c1.6,2.5,2.8,5.3,3.6,8.3c0.5,2.1,0.8,4.3,0.8,6.5c0,15.2-12.3,27.6-27.6,27.6
	c-11.2,0-20.8-6.6-25.1-16.2c-0.9,0-1.8,0-2.7,0.1h0c-4.9,0.3-9.6,1.4-13.9,3.1c6.1,17.2,22.5,29.6,41.7,29.6
	c24.4,0,44.2-19.8,44.2-44.2c0-6.6-1.5-12.9-4.1-18.6c-1.2-2.6-2.6-5-4.2-7.2c1.2-0.9,2.5-1.8,3.8-2.6C219.4,36.8,237.6,31,257.3,31
	c13.6,0,26.6,2.8,38.4,7.9c17.7,7.6,32.8,20.3,43.5,36.4c3.9,5.9,7.2,12.2,9.9,18.9c-2.7,0.9-5.2,2.1-7.6,3.5
	c-13.3,7.6-22.2,22-22.2,38.3c0,24.4,19.8,44.2,44.2,44.2c14.3,0,27-6.8,35.1-17.4c-3.6-2.6-7.4-4.8-11.4-6.6
	c-1.2-0.5-2.4-1-3.6-1.4c-5,5.3-12.1,8.6-20,8.6c-15.2,0-27.6-12.3-27.6-27.6c0-8.7,4-16.4,10.3-21.5c2.3-1.8,4.8-3.3,7.6-4.4
	c3-1.1,6.2-1.7,9.6-1.7c2.5,0,4.9,0.3,7.2,1c3.3,0.9,6.5,2.4,9.2,4.5c2.7,2,5,4.4,6.8,7.3c7.2,1.8,14.1,4.5,20.5,7.9
	c-2.7-17.2-15.4-31.1-31.9-35.6c-3-0.8-6.1-1.4-9.3-1.5c-0.7-2-1.4-3.9-2.2-5.9c-8.8-21-23.4-38.9-41.8-51.6
	c-18.4-12.6-40.7-20-64.6-20c-23,0-44.5,6.9-62.4,18.6c-2.4,1.6-4.7,3.2-7,4.9c-2.6-1.6-5.3-3-8.2-4.1c-4.8-1.8-9.9-2.7-15.3-2.7
	c-17,0-31.7,9.6-39.1,23.6c3-0.6,6-0.9,9-1.2C136.1,53.4,137.8,53.4,139.6,53.4"/>
<path class="st0" d="M72.6,108.6c-8.7,2-15.2,9.8-15.2,19.2c0,0.2,0,0.3,0,0.5c0.2,6.1,3.1,11.5,7.6,15c3.3,2.6,7.5,4.1,12.1,4.1
	c10.9,0,19.7-8.8,19.7-19.7c0-6.3-3-12-7.7-15.6c1-2.4,2.3-4.8,3.7-7.1c0.7-1.2,1.5-2.3,2.3-3.4c2.4-3.4,5.3-6.6,8.4-9.4
	c4-3.6,8.6-6.6,13.5-8.9c1.2-0.6,2.5-1.1,3.8-1.6c4.8-1.8,10-3,15.4-3.3c0.3,0,0.7,0,1-0.1c0.9,0,1.7-0.1,2.6-0.1
	c1.8,0,3.6,0.1,5.4,0.3c1.6,9.3,9.6,16.3,19.4,16.3c10.9,0,19.7-8.8,19.7-19.7c0-3.1-0.8-6.1-2.1-8.7c-2.6-5.2-7.3-9-13-10.4
	c-1.5-0.4-3-0.6-4.6-0.6c-5.9,0-11.3,2.7-14.9,6.8c-3-0.4-6-0.7-9.1-0.7c-0.3,0-0.6,0-0.8,0c-1.6,0-3.1,0.1-4.7,0.2
	c-4.5,0.3-9,1.1-13.2,2.2c-4.1,1.1-8,2.5-11.8,4.2c-8.6,4-16.3,9.6-22.6,16.5c-2.1,2.3-4.1,4.7-5.9,7.3c-1.9,2.6-3.5,5.4-5.1,8.2
	C74.9,102.9,73.6,105.7,72.6,108.6"/>
<path class="st0" d="M241.9,297.7c3.2,6.7,9.9,11.3,17.8,11.3c7.9,0,14.7-4.6,17.8-11.3c1.2-2.5,1.9-5.4,1.9-8.4
	c0-3-0.7-5.8-1.9-8.3c-3.1-6.7-9.9-11.4-17.8-11.4c-7.9,0-14.7,4.7-17.8,11.4h-8.5h-17.2H108.1c-10.3,0-20.1-2.2-29-6
	c-13.4-5.8-24.8-15.4-32.8-27.5c-8.1-12.1-12.8-26.7-12.8-42.4c0-16.6,5.2-31.9,14.1-44.3c2.1,1.8,4.3,3.5,6.7,4.9
	c6.6,4,14.4,6.3,22.7,6.3c24.4,0,44.2-19.8,44.2-44.2c0-11.5-4.4-22-11.7-29.9c-2.9,2.5-5.6,5.4-7.8,8.6c-1,1.5-2,3-2.8,4.5
	c3.6,4.6,5.7,10.4,5.7,16.8c0,15.2-12.3,27.6-27.6,27.6c-3.9,0-7.6-0.8-11-2.3c-2.7-1.2-5.2-2.8-7.3-4.7c-4.2-3.8-7.3-8.9-8.6-14.6
	c-0.4-1.9-0.7-3.9-0.7-6c0-1.5,0.1-2.9,0.3-4.3c1.5-9.4,7.7-17.2,16.2-20.9c2.3-5.4,5.2-10.6,8.5-15.3c0.9-1.2,1.8-2.4,2.7-3.6
	c-0.1,0-0.2,0-0.3,0c-24.4,0-44.2,19.9-44.2,44.2c0,3.5,0.4,6.9,1.2,10.1c0.7,3.2,1.8,6.2,3.2,9.1c-1,1.2-2,2.5-2.9,3.8
	c-10.9,15.2-17.4,34.1-17.4,54.3c0,12.7,2.6,24.9,7.2,36c6.9,16.6,18.5,30.7,33,40.7c14.6,10,32.2,15.9,51,15.9h0h108.2h17.2
	L241.9,297.7L241.9,297.7z"/>
<path class="st0" d="M441.8,178.8c-6.4-15.3-17-28.3-30.4-37.5c-1.2-0.8-2.4-1.6-3.7-2.4c-5.3-3.3-11-5.9-17-8
	c-2.9-1-5.9-1.8-8.9-2.4c-1.8-4.5-5.3-8.1-9.7-10.2c-2.6-1.2-5.5-2-8.5-2c-3,0-5.7,0.7-8.3,1.8c-6.7,3.1-11.4,9.9-11.4,17.9
	c0,10.9,8.8,19.7,19.7,19.7c7.5,0,14-4.2,17.3-10.3c2.6,0.7,5.1,1.5,7.6,2.5c0.7,0.3,1.4,0.5,2.1,0.8c4.4,1.9,8.7,4.3,12.6,7.1
	c6.7,4.8,12.5,10.8,17.1,17.7c7.3,11,11.5,24.2,11.5,38.4v0.2v0c0,9.5-1.9,18.5-5.3,26.8c-5.1,12.3-13.7,22.8-24.4,30.3
	c-10.8,7.4-23.7,11.8-37.6,11.8h-61.2c-0.6-2.9-1.4-5.7-2.5-8.3c-6.6-16.1-22.5-27.6-41-27.6c-18.5,0-34.4,11.4-41,27.6h19
	c5-6.6,13-10.9,21.9-10.9c9,0,16.9,4.3,21.9,10.9c1.9,2.5,3.4,5.3,4.4,8.3c0.8,2.6,1.3,5.4,1.3,8.3c0,2.9-0.5,5.7-1.3,8.4
	c-1,3.1-2.5,5.8-4.4,8.3c-5,6.6-13,10.9-21.9,10.9c-8.9,0-16.9-4.3-21.9-10.9h-19c6.6,16.2,22.5,27.5,40.9,27.5
	c18.5,0,34.4-11.4,40.9-27.5c1.1-2.7,1.9-5.5,2.5-8.3h61.2h0c11.6,0,22.7-2.5,32.8-6.9c15.1-6.6,27.9-17.4,36.9-31
	c9-13.6,14.3-30.1,14.3-47.7v-0.1V212C448.4,200.2,446,189,441.8,178.8"/>
</svg>
